<svg width="530" height="255" viewBox="0 0 530 255" fill="none" xmlns="http://www.w3.org/2000/svg">
<path fill-rule="evenodd" clip-rule="evenodd" d="M475.29 254.36V209.13H421.29V254.36H393.73V136.36H421.26V181.6H475.26V136.35H502.79V238.9C502.787 243 501.158 246.93 498.259 249.829C495.36 252.728 491.429 254.357 487.33 254.36H475.29Z" fill="#030305"/>
<path d="M509.46 109.63C509.441 109.622 509.421 109.617 509.4 109.617C509.38 109.617 509.359 109.622 509.34 109.63H501.09C501.072 109.631 501.055 109.636 501.039 109.644C501.023 109.653 501.008 109.664 500.997 109.678C500.986 109.693 500.978 109.709 500.973 109.726C500.968 109.744 500.967 109.762 500.97 109.78V111.93C500.97 111.93 500.97 112 500.97 112.02C500.97 112.04 500.97 112.02 500.97 112.02C500.993 112.028 501.018 112.028 501.04 112.02H503.72C503.77 112.02 503.8 112.07 503.8 112.11V120.16C503.795 120.176 503.795 120.194 503.8 120.21C503.8 120.21 503.85 120.26 503.87 120.26H506.45C506.5 120.26 506.52 120.2 506.53 120.17V112.08C506.54 112.076 506.55 112.073 506.56 112.073C506.571 112.073 506.581 112.076 506.59 112.08H509.25C509.279 112.092 509.311 112.092 509.34 112.08C509.35 112.041 509.35 111.999 509.34 111.96V109.7C509.344 109.677 509.344 109.653 509.34 109.63H509.46ZM521.75 109.55H519.45C519.395 109.544 519.34 109.556 519.292 109.583C519.243 109.609 519.204 109.65 519.18 109.7L516.78 115.29H516.71L514.24 109.7C514.219 109.65 514.182 109.609 514.135 109.582C514.088 109.555 514.034 109.543 513.98 109.55H511.65C511.53 109.55 511.48 109.55 511.48 109.7V120.09C511.48 120.19 511.48 120.24 511.65 120.24H513.83C513.94 120.24 513.99 120.19 513.99 120.09V114.58H514.06L515.78 118.58C515.807 118.639 515.849 118.689 515.902 118.726C515.954 118.763 516.016 118.785 516.08 118.79H517.31C517.375 118.792 517.439 118.773 517.492 118.735C517.544 118.697 517.582 118.642 517.6 118.58L519.32 114.58H519.4V120.09C519.4 120.19 519.45 120.24 519.56 120.24H521.75C521.771 120.243 521.792 120.242 521.812 120.236C521.831 120.229 521.849 120.218 521.864 120.204C521.879 120.189 521.89 120.171 521.896 120.151C521.902 120.131 521.904 120.11 521.9 120.09V109.7C521.904 109.68 521.902 109.658 521.896 109.639C521.89 109.619 521.879 109.601 521.864 109.586C521.849 109.572 521.831 109.561 521.812 109.554C521.792 109.548 521.771 109.546 521.75 109.55ZM521.75 109.55H519.45C519.395 109.544 519.34 109.556 519.292 109.583C519.243 109.609 519.204 109.65 519.18 109.7L516.78 115.29H516.71L514.24 109.7C514.219 109.65 514.182 109.609 514.135 109.582C514.088 109.555 514.034 109.543 513.98 109.55H511.65C511.53 109.55 511.48 109.55 511.48 109.7V120.09C511.48 120.19 511.48 120.24 511.65 120.24H513.83C513.94 120.24 513.99 120.19 513.99 120.09V114.58H514.06L515.78 118.58C515.807 118.639 515.849 118.689 515.902 118.726C515.954 118.763 516.016 118.785 516.08 118.79H517.31C517.375 118.792 517.439 118.773 517.492 118.735C517.544 118.697 517.582 118.642 517.6 118.58L519.32 114.58H519.4V120.09C519.4 120.19 519.45 120.24 519.56 120.24H521.75C521.771 120.243 521.792 120.242 521.812 120.236C521.831 120.229 521.849 120.218 521.864 120.204C521.879 120.189 521.89 120.171 521.896 120.151C521.902 120.131 521.904 120.11 521.9 120.09V109.7C521.904 109.68 521.902 109.658 521.896 109.639C521.89 109.619 521.879 109.601 521.864 109.586C521.849 109.572 521.831 109.561 521.812 109.554C521.792 109.548 521.771 109.546 521.75 109.55ZM509.46 109.63C509.441 109.622 509.421 109.617 509.4 109.617C509.38 109.617 509.359 109.622 509.34 109.63H501.09C501.072 109.631 501.055 109.636 501.039 109.644C501.023 109.653 501.008 109.664 500.997 109.678C500.986 109.693 500.978 109.709 500.973 109.726C500.968 109.744 500.967 109.762 500.97 109.78V111.93C500.97 111.93 500.97 112 500.97 112.02C500.97 112.04 500.97 112.02 500.97 112.02C500.993 112.028 501.018 112.028 501.04 112.02H503.72C503.77 112.02 503.8 112.07 503.8 112.11V120.16C503.795 120.176 503.795 120.194 503.8 120.21C503.8 120.21 503.85 120.26 503.87 120.26H506.45C506.5 120.26 506.52 120.2 506.53 120.17V112.08C506.54 112.076 506.55 112.073 506.56 112.073C506.571 112.073 506.581 112.076 506.59 112.08H509.25C509.279 112.092 509.311 112.092 509.34 112.08C509.35 112.041 509.35 111.999 509.34 111.96V109.7C509.344 109.677 509.344 109.653 509.34 109.63H509.46ZM509.46 109.63C509.441 109.622 509.421 109.617 509.4 109.617C509.38 109.617 509.359 109.622 509.34 109.63H501.09C501.072 109.631 501.055 109.636 501.039 109.644C501.023 109.653 501.008 109.664 500.997 109.678C500.986 109.693 500.978 109.709 500.973 109.726C500.968 109.744 500.967 109.762 500.97 109.78V111.93C500.97 111.93 500.97 112 500.97 112.02C500.97 112.04 500.97 112.02 500.97 112.02C500.993 112.028 501.018 112.028 501.04 112.02H503.72C503.77 112.02 503.8 112.07 503.8 112.11V120.16C503.795 120.176 503.795 120.194 503.8 120.21C503.8 120.21 503.85 120.26 503.87 120.26H506.45C506.5 120.26 506.52 120.2 506.53 120.17V112.08C506.54 112.076 506.55 112.073 506.56 112.073C506.571 112.073 506.581 112.076 506.59 112.08H509.25C509.279 112.092 509.311 112.092 509.34 112.08C509.35 112.041 509.35 111.999 509.34 111.96V109.7C509.344 109.677 509.344 109.653 509.34 109.63H509.46ZM521.75 109.55H519.45C519.395 109.544 519.34 109.556 519.292 109.583C519.243 109.609 519.204 109.65 519.18 109.7L516.78 115.29H516.71L514.24 109.7C514.219 109.65 514.182 109.609 514.135 109.582C514.088 109.555 514.034 109.543 513.98 109.55H511.65C511.53 109.55 511.48 109.55 511.48 109.7V120.09C511.48 120.19 511.48 120.24 511.65 120.24H513.83C513.94 120.24 513.99 120.19 513.99 120.09V114.58H514.06L515.78 118.58C515.807 118.639 515.849 118.689 515.902 118.726C515.954 118.763 516.016 118.785 516.08 118.79H517.31C517.375 118.792 517.439 118.773 517.492 118.735C517.544 118.697 517.582 118.642 517.6 118.58L519.32 114.58H519.4V120.09C519.4 120.19 519.45 120.24 519.56 120.24H521.75C521.771 120.243 521.792 120.242 521.812 120.236C521.831 120.229 521.849 120.218 521.864 120.204C521.879 120.189 521.89 120.171 521.896 120.151C521.902 120.131 521.904 120.11 521.9 120.09V109.7C521.904 109.68 521.902 109.658 521.896 109.639C521.89 109.619 521.879 109.601 521.864 109.586C521.849 109.572 521.831 109.561 521.812 109.554C521.792 109.548 521.771 109.546 521.75 109.55ZM521.75 109.55H519.45C519.395 109.544 519.34 109.556 519.292 109.583C519.243 109.609 519.204 109.65 519.18 109.7L516.78 115.29H516.71L514.24 109.7C514.219 109.65 514.182 109.609 514.135 109.582C514.088 109.555 514.034 109.543 513.98 109.55H511.65C511.53 109.55 511.48 109.55 511.48 109.7V120.09C511.48 120.19 511.48 120.24 511.65 120.24H513.83C513.94 120.24 513.99 120.19 513.99 120.09V114.58H514.06L515.78 118.58C515.807 118.639 515.849 118.689 515.902 118.726C515.954 118.763 516.016 118.785 516.08 118.79H517.31C517.375 118.792 517.439 118.773 517.492 118.735C517.544 118.697 517.582 118.642 517.6 118.58L519.32 114.58H519.4V120.09C519.4 120.19 519.45 120.24 519.56 120.24H521.75C521.771 120.243 521.792 120.242 521.812 120.236C521.831 120.229 521.849 120.218 521.864 120.204C521.879 120.189 521.89 120.171 521.896 120.151C521.902 120.131 521.904 120.11 521.9 120.09V109.7C521.904 109.68 521.902 109.658 521.896 109.639C521.89 109.619 521.879 109.601 521.864 109.586C521.849 109.572 521.831 109.561 521.812 109.554C521.792 109.548 521.771 109.546 521.75 109.55ZM509.46 109.63C509.441 109.622 509.421 109.617 509.4 109.617C509.38 109.617 509.359 109.622 509.34 109.63H501.09C501.072 109.631 501.055 109.636 501.039 109.644C501.023 109.653 501.008 109.664 500.997 109.678C500.986 109.693 500.978 109.709 500.973 109.726C500.968 109.744 500.967 109.762 500.97 109.78V111.93C500.97 111.93 500.97 112 500.97 112.02C500.97 112.04 500.97 112.02 500.97 112.02C500.993 112.028 501.018 112.028 501.04 112.02H503.72C503.77 112.02 503.8 112.07 503.8 112.11V120.16C503.795 120.176 503.795 120.194 503.8 120.21C503.8 120.21 503.85 120.26 503.87 120.26H506.45C506.5 120.26 506.52 120.2 506.53 120.17V112.08C506.54 112.076 506.55 112.073 506.56 112.073C506.571 112.073 506.581 112.076 506.59 112.08H509.25C509.279 112.092 509.311 112.092 509.34 112.08C509.35 112.041 509.35 111.999 509.34 111.96V109.7C509.344 109.677 509.344 109.653 509.34 109.63H509.46ZM509.46 109.63C509.441 109.622 509.421 109.617 509.4 109.617C509.38 109.617 509.359 109.622 509.34 109.63H501.09C501.072 109.631 501.055 109.636 501.039 109.644C501.023 109.653 501.008 109.664 500.997 109.678C500.986 109.693 500.978 109.709 500.973 109.726C500.968 109.744 500.967 109.762 500.97 109.78V111.93C500.97 111.93 500.97 112 500.97 112.02C500.97 112.04 500.97 112.02 500.97 112.02C500.993 112.028 501.018 112.028 501.04 112.02H503.72C503.77 112.02 503.8 112.07 503.8 112.11V120.16C503.795 120.176 503.795 120.194 503.8 120.21C503.8 120.21 503.85 120.26 503.87 120.26H506.45C506.5 120.26 506.52 120.2 506.53 120.17V112.08C506.54 112.076 506.55 112.073 506.56 112.073C506.571 112.073 506.581 112.076 506.59 112.08H509.25C509.279 112.092 509.311 112.092 509.34 112.08C509.35 112.041 509.35 111.999 509.34 111.96V109.7C509.344 109.677 509.344 109.653 509.34 109.63H509.46ZM521.76 109.63H519.46C519.405 109.624 519.35 109.636 519.302 109.663C519.253 109.689 519.214 109.73 519.19 109.78L516.79 115.37H516.72L514.24 109.7C514.219 109.65 514.182 109.609 514.135 109.582C514.088 109.555 514.034 109.543 513.98 109.55H511.65C511.53 109.55 511.48 109.55 511.48 109.7V120.09C511.48 120.19 511.48 120.24 511.65 120.24H513.83C513.94 120.24 513.99 120.19 513.99 120.09V114.58H514.06L515.78 118.58C515.807 118.639 515.849 118.689 515.902 118.726C515.954 118.763 516.016 118.785 516.08 118.79H517.31C517.375 118.792 517.439 118.773 517.492 118.735C517.544 118.697 517.582 118.642 517.6 118.58L519.32 114.58H519.4V120.09C519.4 120.19 519.45 120.24 519.56 120.24H521.75C521.771 120.243 521.792 120.242 521.812 120.236C521.831 120.229 521.849 120.218 521.864 120.204C521.879 120.189 521.89 120.171 521.896 120.151C521.902 120.131 521.904 120.11 521.9 120.09V109.7C521.904 109.68 521.902 109.658 521.896 109.639C521.89 109.619 521.879 109.601 521.864 109.586C521.849 109.572 521.831 109.561 521.812 109.554C521.792 109.548 521.771 109.546 521.75 109.55L521.76 109.63ZM511.45 129.51C508.576 129.512 505.766 128.661 503.375 127.066C500.984 125.471 499.12 123.202 498.019 120.547C496.918 117.892 496.629 114.971 497.188 112.151C497.748 109.332 499.131 106.742 501.162 104.709C503.194 102.676 505.783 101.291 508.602 100.73C511.421 100.168 514.343 100.456 516.998 101.555C519.654 102.655 521.924 104.517 523.521 106.906C525.118 109.296 525.97 112.106 525.97 114.98C525.97 118.832 524.441 122.526 521.718 125.251C518.995 127.975 515.302 129.507 511.45 129.51ZM511.45 96.98C507.89 96.98 504.41 98.0357 501.45 100.014C498.49 101.991 496.183 104.803 494.82 108.092C493.458 111.381 493.102 115 493.796 118.492C494.491 121.983 496.205 125.191 498.722 127.708C501.24 130.225 504.447 131.94 507.939 132.634C511.43 133.329 515.049 132.972 518.338 131.61C521.628 130.247 524.439 127.94 526.417 124.98C528.395 122.02 529.45 118.54 529.45 114.98C529.45 110.206 527.554 105.628 524.178 102.252C520.802 98.8764 516.224 96.98 511.45 96.98ZM509.45 109.68C509.431 109.672 509.411 109.667 509.39 109.667C509.37 109.667 509.349 109.672 509.33 109.68H501.08C501.062 109.681 501.045 109.686 501.029 109.694C501.013 109.703 500.998 109.714 500.987 109.728C500.976 109.743 500.968 109.759 500.963 109.776C500.958 109.794 500.957 109.812 500.96 109.83V111.98C500.96 111.98 500.96 112.05 500.96 112.07C500.96 112.09 500.96 112.07 500.96 112.07C500.983 112.078 501.007 112.078 501.03 112.07H503.71C503.76 112.07 503.79 112.12 503.79 112.16V120.21C503.785 120.226 503.785 120.244 503.79 120.26C503.79 120.26 503.84 120.31 503.86 120.31H506.44C506.49 120.31 506.51 120.25 506.52 120.22V112.13C506.53 112.126 506.54 112.123 506.55 112.123C506.561 112.123 506.571 112.126 506.58 112.13H509.24C509.269 112.142 509.301 112.142 509.33 112.13C509.34 112.091 509.34 112.049 509.33 112.01V109.7C509.334 109.677 509.334 109.653 509.33 109.63L509.45 109.68ZM521.75 109.68H519.45C519.395 109.674 519.34 109.686 519.292 109.713C519.243 109.739 519.204 109.78 519.18 109.83L516.78 115.42H516.71L514.24 109.7C514.219 109.65 514.182 109.609 514.135 109.582C514.088 109.555 514.034 109.543 513.98 109.55H511.65C511.53 109.55 511.48 109.55 511.48 109.7V120.09C511.48 120.19 511.48 120.24 511.65 120.24H513.83C513.94 120.24 513.99 120.19 513.99 120.09V114.58H514.06L515.78 118.58C515.807 118.639 515.849 118.689 515.902 118.726C515.954 118.763 516.016 118.785 516.08 118.79H517.31C517.375 118.792 517.439 118.773 517.492 118.735C517.544 118.697 517.582 118.642 517.6 118.58L519.32 114.58H519.4V120.09C519.4 120.19 519.45 120.24 519.56 120.24H521.75C521.771 120.243 521.792 120.242 521.812 120.236C521.831 120.229 521.849 120.218 521.864 120.204C521.879 120.189 521.89 120.171 521.896 120.151C521.902 120.131 521.904 120.11 521.9 120.09V109.7C521.904 109.68 521.902 109.658 521.896 109.639C521.89 109.619 521.879 109.601 521.864 109.586C521.849 109.572 521.831 109.561 521.812 109.554C521.792 109.548 521.771 109.546 521.75 109.55V109.68ZM521.75 109.68H519.45C519.395 109.674 519.34 109.686 519.292 109.713C519.243 109.739 519.204 109.78 519.18 109.83L516.78 115.42H516.71L514.24 109.7C514.219 109.65 514.182 109.609 514.135 109.582C514.088 109.555 514.034 109.543 513.98 109.55H511.65C511.53 109.55 511.48 109.55 511.48 109.7V120.09C511.48 120.19 511.48 120.24 511.65 120.24H513.83C513.94 120.24 513.99 120.19 513.99 120.09V114.58H514.06L515.78 118.58C515.807 118.639 515.849 118.689 515.902 118.726C515.954 118.763 516.016 118.785 516.08 118.79H517.31C517.375 118.792 517.439 118.773 517.492 118.735C517.544 118.697 517.582 118.642 517.6 118.58L519.32 114.58H519.4V120.09C519.4 120.19 519.45 120.24 519.56 120.24H521.75C521.771 120.243 521.792 120.242 521.812 120.236C521.831 120.229 521.849 120.218 521.864 120.204C521.879 120.189 521.89 120.171 521.896 120.151C521.902 120.131 521.904 120.11 521.9 120.09V109.7C521.904 109.68 521.902 109.658 521.896 109.639C521.89 109.619 521.879 109.601 521.864 109.586C521.849 109.572 521.831 109.561 521.812 109.554C521.792 109.548 521.771 109.546 521.75 109.55V109.68ZM509.46 109.76C509.441 109.752 509.421 109.747 509.4 109.747C509.38 109.747 509.359 109.752 509.34 109.76H501.09C501.072 109.761 501.055 109.766 501.039 109.774C501.023 109.783 501.008 109.794 500.997 109.809C500.986 109.823 500.978 109.839 500.973 109.856C500.968 109.874 500.967 109.892 500.97 109.91V112.06C500.97 112.06 500.97 112.13 500.97 112.15C500.97 112.17 500.97 112.15 500.97 112.15C500.993 112.158 501.018 112.158 501.04 112.15H503.72C503.77 112.15 503.8 112.2 503.8 112.24V120.29C503.795 120.306 503.795 120.324 503.8 120.34C503.8 120.34 503.85 120.39 503.87 120.39H506.45C506.5 120.39 506.52 120.33 506.53 120.3V112.21C506.54 112.206 506.55 112.203 506.56 112.203C506.571 112.203 506.581 112.206 506.59 112.21H509.25C509.279 112.222 509.311 112.222 509.34 112.21C509.35 112.171 509.35 112.129 509.34 112.09V109.7C509.344 109.677 509.344 109.653 509.34 109.63L509.46 109.76ZM509.46 109.76C509.441 109.752 509.421 109.747 509.4 109.747C509.38 109.747 509.359 109.752 509.34 109.76H501.09C501.072 109.761 501.055 109.766 501.039 109.774C501.023 109.783 501.008 109.794 500.997 109.809C500.986 109.823 500.978 109.839 500.973 109.856C500.968 109.874 500.967 109.892 500.97 109.91V112.06C500.97 112.06 500.97 112.13 500.97 112.15C500.97 112.17 500.97 112.15 500.97 112.15C500.993 112.158 501.018 112.158 501.04 112.15H503.72C503.77 112.15 503.8 112.2 503.8 112.24V120.29C503.795 120.306 503.795 120.324 503.8 120.34C503.8 120.34 503.85 120.39 503.87 120.39H506.45C506.5 120.39 506.52 120.33 506.53 120.3V112.21C506.54 112.206 506.55 112.203 506.56 112.203C506.571 112.203 506.581 112.206 506.59 112.21H509.25C509.279 112.222 509.311 112.222 509.34 112.21C509.35 112.171 509.35 112.129 509.34 112.09V109.7C509.344 109.677 509.344 109.653 509.34 109.63L509.46 109.76ZM521.75 109.68H519.45C519.395 109.674 519.34 109.686 519.292 109.713C519.243 109.739 519.204 109.78 519.18 109.83L516.78 115.42H516.71L514.24 109.7C514.219 109.65 514.182 109.609 514.135 109.582C514.088 109.555 514.034 109.543 513.98 109.55H511.65C511.53 109.55 511.48 109.55 511.48 109.7V120.09C511.48 120.19 511.48 120.24 511.65 120.24H513.83C513.94 120.24 513.99 120.19 513.99 120.09V114.58H514.06L515.78 118.58C515.807 118.639 515.849 118.689 515.902 118.726C515.954 118.763 516.016 118.785 516.08 118.79H517.31C517.375 118.792 517.439 118.773 517.492 118.735C517.544 118.697 517.582 118.642 517.6 118.58L519.32 114.58H519.4V120.09C519.4 120.19 519.45 120.24 519.56 120.24H521.75C521.771 120.243 521.792 120.242 521.812 120.236C521.831 120.229 521.849 120.218 521.864 120.204C521.879 120.189 521.89 120.171 521.896 120.151C521.902 120.131 521.904 120.11 521.9 120.09V109.7C521.904 109.68 521.902 109.658 521.896 109.639C521.89 109.619 521.879 109.601 521.864 109.586C521.849 109.572 521.831 109.561 521.812 109.554C521.792 109.548 521.771 109.546 521.75 109.55V109.68ZM521.75 109.68H519.45C519.395 109.674 519.34 109.686 519.292 109.713C519.243 109.739 519.204 109.78 519.18 109.83L516.78 115.42H516.71L514.24 109.7C514.219 109.65 514.182 109.609 514.135 109.582C514.088 109.555 514.034 109.543 513.98 109.55H511.65C511.53 109.55 511.48 109.55 511.48 109.7V120.09C511.48 120.19 511.48 120.24 511.65 120.24H513.83C513.94 120.24 513.99 120.19 513.99 120.09V114.58H514.06L515.78 118.58C515.807 118.639 515.849 118.689 515.902 118.726C515.954 118.763 516.016 118.785 516.08 118.79H517.31C517.375 118.792 517.439 118.773 517.492 118.735C517.544 118.697 517.582 118.642 517.6 118.58L519.32 114.58H519.4V120.09C519.4 120.19 519.45 120.24 519.56 120.24H521.75C521.771 120.243 521.792 120.242 521.812 120.236C521.831 120.229 521.849 120.218 521.864 120.204C521.879 120.189 521.89 120.171 521.896 120.151C521.902 120.131 521.904 120.11 521.9 120.09V109.7C521.904 109.68 521.902 109.658 521.896 109.639C521.89 109.619 521.879 109.601 521.864 109.586C521.849 109.572 521.831 109.561 521.812 109.554C521.792 109.548 521.771 109.546 521.75 109.55V109.68ZM509.46 109.76C509.441 109.752 509.421 109.747 509.4 109.747C509.38 109.747 509.359 109.752 509.34 109.76H501.09C501.072 109.761 501.055 109.766 501.039 109.774C501.023 109.783 501.008 109.794 500.997 109.809C500.986 109.823 500.978 109.839 500.973 109.856C500.968 109.874 500.967 109.892 500.97 109.91V112.06C500.97 112.06 500.97 112.13 500.97 112.15C500.97 112.17 500.97 112.15 500.97 112.15C500.993 112.158 501.018 112.158 501.04 112.15H503.72C503.77 112.15 503.8 112.2 503.8 112.24V120.29C503.795 120.306 503.795 120.324 503.8 120.34C503.8 120.34 503.85 120.39 503.87 120.39H506.45C506.5 120.39 506.52 120.33 506.53 120.3V112.21C506.54 112.206 506.55 112.203 506.56 112.203C506.571 112.203 506.581 112.206 506.59 112.21H509.25C509.279 112.222 509.311 112.222 509.34 112.21C509.35 112.171 509.35 112.129 509.34 112.09V109.7C509.344 109.677 509.344 109.653 509.34 109.63L509.46 109.76ZM509.46 109.76C509.441 109.752 509.421 109.747 509.4 109.747C509.38 109.747 509.359 109.752 509.34 109.76H501.09C501.072 109.761 501.055 109.766 501.039 109.774C501.023 109.783 501.008 109.794 500.997 109.809C500.986 109.823 500.978 109.839 500.973 109.856C500.968 109.874 500.967 109.892 500.97 109.91V112.06C500.97 112.06 500.97 112.13 500.97 112.15C500.97 112.17 500.97 112.15 500.97 112.15C500.993 112.158 501.018 112.158 501.04 112.15H503.72C503.77 112.15 503.8 112.2 503.8 112.24V120.29C503.795 120.306 503.795 120.324 503.8 120.34C503.8 120.34 503.85 120.39 503.87 120.39H506.45C506.5 120.39 506.52 120.33 506.53 120.3V112.21C506.54 112.206 506.55 112.203 506.56 112.203C506.571 112.203 506.581 112.206 506.59 112.21H509.25C509.279 112.222 509.311 112.222 509.34 112.21C509.35 112.171 509.35 112.129 509.34 112.09V109.7C509.344 109.677 509.344 109.653 509.34 109.63L509.46 109.76ZM521.75 109.68H519.45C519.395 109.674 519.34 109.686 519.292 109.713C519.243 109.739 519.204 109.78 519.18 109.83L516.78 115.42H516.71L514.24 109.7C514.219 109.65 514.182 109.609 514.135 109.582C514.088 109.555 514.034 109.543 513.98 109.55H511.65C511.53 109.55 511.48 109.55 511.48 109.7V120.09C511.48 120.19 511.48 120.24 511.65 120.24H513.83C513.94 120.24 513.99 120.19 513.99 120.09V114.58H514.06L515.78 118.58C515.807 118.639 515.849 118.689 515.902 118.726C515.954 118.763 516.016 118.785 516.08 118.79H517.31C517.375 118.792 517.439 118.773 517.492 118.735C517.544 118.697 517.582 118.642 517.6 118.58L519.32 114.58H519.4V120.09C519.4 120.19 519.45 120.24 519.56 120.24H521.75C521.771 120.243 521.792 120.242 521.812 120.236C521.831 120.229 521.849 120.218 521.864 120.204C521.879 120.189 521.89 120.171 521.896 120.151C521.902 120.131 521.904 120.11 521.9 120.09V109.7C521.904 109.68 521.902 109.658 521.896 109.639C521.89 109.619 521.879 109.601 521.864 109.586C521.849 109.572 521.831 109.561 521.812 109.554C521.792 109.548 521.771 109.546 521.75 109.55V109.68ZM509.46 109.76C509.441 109.752 509.421 109.747 509.4 109.747C509.38 109.747 509.359 109.752 509.34 109.76H501.09C501.072 109.761 501.055 109.766 501.039 109.774C501.023 109.783 501.008 109.794 500.997 109.809C500.986 109.823 500.978 109.839 500.973 109.856C500.968 109.874 500.967 109.892 500.97 109.91V112.06C500.97 112.06 500.97 112.13 500.97 112.15C500.97 112.17 500.97 112.15 500.97 112.15C500.993 112.158 501.018 112.158 501.04 112.15H503.72C503.77 112.15 503.8 112.2 503.8 112.24V120.29C503.795 120.306 503.795 120.324 503.8 120.34C503.8 120.34 503.85 120.39 503.87 120.39H506.45C506.5 120.39 506.52 120.33 506.53 120.3V112.21C506.54 112.206 506.55 112.203 506.56 112.203C506.571 112.203 506.581 112.206 506.59 112.21H509.25C509.279 112.222 509.311 112.222 509.34 112.21C509.35 112.171 509.35 112.129 509.34 112.09V109.7C509.344 109.677 509.344 109.653 509.34 109.63L509.46 109.76ZM521.75 109.68H519.45C519.395 109.674 519.34 109.686 519.292 109.713C519.243 109.739 519.204 109.78 519.18 109.83L516.78 115.42H516.71L514.24 109.7C514.219 109.65 514.182 109.609 514.135 109.582C514.088 109.555 514.034 109.543 513.98 109.55H511.65C511.53 109.55 511.48 109.55 511.48 109.7V120.09C511.48 120.19 511.48 120.24 511.65 120.24H513.83C513.94 120.24 513.99 120.19 513.99 120.09V114.58H514.06L515.78 118.58C515.807 118.639 515.849 118.689 515.902 118.726C515.954 118.763 516.016 118.785 516.08 118.79H517.31C517.375 118.792 517.439 118.773 517.492 118.735C517.544 118.697 517.582 118.642 517.6 118.58L519.32 114.58H519.4V120.09C519.4 120.19 519.45 120.24 519.56 120.24H521.75C521.771 120.243 521.792 120.242 521.812 120.236C521.831 120.229 521.849 120.218 521.864 120.204C521.879 120.189 521.89 120.171 521.896 120.151C521.902 120.131 521.904 120.11 521.9 120.09V109.7C521.904 109.68 521.902 109.658 521.896 109.639C521.89 109.619 521.879 109.601 521.864 109.586C521.849 109.572 521.831 109.561 521.812 109.554C521.792 109.548 521.771 109.546 521.75 109.55V109.68Z" fill="#231F20"/>
<path fill-rule="evenodd" clip-rule="evenodd" d="M344.6 181.7H313.45C301.37 181.7 300.06 175.26 300.06 172.49C300.06 163.97 310.14 163.97 313.45 163.97H384.94V136.34H328H332H314.22C286.3 136.34 273.22 147.76 273.1 172.26C273.1 197.39 286.1 209.09 314.1 209.09H344.6C356.26 209.09 357.99 214.43 357.99 217.61C357.99 220.39 356.69 226.85 344.6 226.85H267.41C264.52 234.77 255.83 246.2 241.49 254.32H344.71C372.6 254.36 385.6 242.7 385.6 217.61C385.46 193.13 372.42 181.73 344.6 181.73V181.7Z" fill="#030305"/>
<path d="M198.34 126.17V6.7C198.335 4.92812 197.63 3.23002 196.379 1.97523C195.128 0.72045 193.432 0.0105392 191.66 0H126.38L100.38 37.75H173.31L124.68 113.24H156.11C123.11 185.91 86.8001 259.13 65.8401 243.64C58.2701 238.04 63.4301 236.1 57.8401 230.83C57.3201 230.33 52.2001 238 51.6901 237.51C51.1801 237.02 55.2901 228.35 54.8101 227.87C26.1601 199.27 10.8101 173.92 10.8101 173.99C10.8101 174.4 10.8901 174.8 10.9401 175.21C10.9901 175.62 11.0501 176.12 11.1101 176.57C11.1101 176.84 11.1801 177.11 11.2201 177.37C11.2801 177.83 11.3501 178.28 11.4201 178.73C11.5301 179.44 11.6501 180.16 11.7901 180.86C11.8701 181.28 11.9401 181.7 12.0301 182.12C12.1201 182.54 12.1901 182.94 12.2801 183.35C12.8901 186.18 16.1901 188.95 17.0701 191.66C17.2001 192.08 17.3501 192.48 17.4901 192.9V193.02C17.6701 193.51 17.8401 194.02 18.0301 194.51C18.2201 195 18.4201 195.57 18.6201 196.09C18.7101 196.33 18.8101 196.58 18.9101 196.82C19.1101 197.33 19.3201 197.82 19.5201 198.32C19.7201 198.82 19.9501 199.32 20.1701 199.81L20.4501 200.44C20.5401 200.65 20.6401 200.86 20.7401 201.07C21.0101 201.65 21.2901 202.24 21.5701 202.82C21.8501 203.4 22.2201 204.11 22.5701 204.75C22.9201 205.39 23.2401 206.03 23.5701 206.65C23.9001 207.27 24.3401 208.02 24.7401 208.65C25.1401 209.28 25.5401 209.97 25.9501 210.65C26.3601 211.33 26.8801 212.11 27.3601 212.82C27.8401 213.53 28.2901 214.17 28.7601 214.82C29.2301 215.47 29.7601 216.14 30.2201 216.82C30.6801 217.5 31.2201 218.11 31.7301 218.74C32.7301 220.02 33.8101 221.26 34.9001 222.46C35.4501 223.06 36.0001 223.66 36.5701 224.25C38.0401 225.79 51.4901 231.08 53.3501 232.75C53.5801 232.95 51.6101 236.86 51.8401 237.06C52.0701 237.26 54.6001 233.7 54.8001 233.9C55.6201 234.61 53.4001 233.45 56.4101 235.38L57.8001 236.25C59.6601 237.4 57.3201 240.13 59.2701 241.12C60.1167 241.56 60.9767 241.99 61.8501 242.41C64.4562 243.651 67.1266 244.753 69.8501 245.71L71.4301 246.25C72.4767 246.597 73.5367 246.93 74.6101 247.25L76.0401 247.65L76.3501 247.74L77.5701 248.05L78.2201 248.21L79.4901 248.5C80.5801 248.75 81.6801 248.98 82.7901 249.18L83.9401 249.38L84.9401 249.55L85.5001 249.63C85.9001 249.7 86.3 249.75 86.7101 249.81L87.7101 249.94C88.2801 250.01 88.8601 250.08 89.4501 250.13C90.0401 250.18 90.6001 250.25 91.1901 250.29H91.2801C91.6801 250.29 92.1001 250.36 92.5101 250.38H93.1001L94.4201 250.45H95.1701H96.1701C96.8201 250.45 97.4601 250.45 98.1101 250.45H99.0601H100.73C103.08 250.45 119.43 250.27 121.73 250.03C122.23 249.98 122.73 249.93 123.24 249.86L124.13 249.75L125.13 249.62L126.44 249.42L127.34 249.27C127.91 249.18 130.64 247.6 131.2 247.5C146.12 242.85 154.44 236.88 154.36 236.75C120.1 185.98 155.63 146.14 175.57 137.83C182.669 134.279 190.367 132.082 198.27 131.35L198.34 126.17ZM198.34 21.87V6.78C198.337 5.01262 197.636 3.31808 196.388 2.06648C195.14 0.814883 193.447 0.107914 191.68 0.0999908H126.39L100.39 37.79H173.31L124.73 113.2H156.11L52.1101 237.2L89.1101 153.79L52.0201 153.65L60.6001 132.2H17.2901C13.6301 132.2 11.2201 135.2 11.2201 138.85L11.2801 165.37C11.2801 190.61 35.9201 216.84 53.4701 232.43C53.7201 232.64 51.4701 237.21 51.7601 237.43C52.0501 237.65 54.7101 233.51 54.9501 233.72C69.7801 246.29 77.3101 250.35 98.2301 250.35H99.1701C139.17 227.35 89.6301 127.83 198.29 21.84L198.34 21.87Z" fill="#E8157C"/>
<path d="M51.9 238.38L56.9 224.8L79.9 161.35L44.27 161.83L52.61 139.46L17.02 139.99C17.02 140.2 17.02 140.86 17.02 141.07V169.97C17.0332 183.147 20.1227 196.139 26.0428 207.912C31.9629 219.684 40.5499 229.912 51.12 237.78C51.25 237.88 51.87 238.28 52 238.38H51.9Z" fill="white"/>
<path d="M125.36 169.49C129.373 159.76 135.539 151.066 143.393 144.061C151.247 137.055 160.587 131.92 170.71 129.04V20.64C170.702 18.8742 169.999 17.1827 168.752 15.9322C167.505 14.6817 165.816 13.9731 164.05 13.96H104.05L81.6 49.61H150.39L101.94 124.84H133.76L52.28 237.54L72.17 161.42H36.37L45.05 139.75H6.75C4.98516 139.758 3.29472 140.462 2.04584 141.709C0.796959 142.956 0.090536 144.645 0.0800171 146.41L0 175.62C2 213.11 34.41 244.34 85.77 253.75C128.93 257.82 121.18 249.47 135.08 239.53C127.361 229.791 122.388 218.164 120.679 205.855C118.97 193.546 120.586 181.004 125.36 169.53V169.49Z" fill="#26B6EA"/>
<path d="M181.91 17.45V129.16C135.54 146.25 119.51 199.65 150.12 239.6C148.681 240.645 147.185 241.609 145.64 242.49C144.4 243.24 143.39 243.93 142.64 244.32C138.722 246.433 134.642 248.232 130.44 249.7C129.02 250.19 127.59 250.64 126.15 251.06C125.32 251.3 124.49 251.53 123.66 251.74L122.4 252.05C121.14 252.36 119.87 252.63 118.59 252.87C118.03 252.97 117.48 253.08 116.91 253.17L116.01 253.32L114.71 253.51C114.39 253.57 114.06 253.61 113.71 253.65L112.83 253.76L111.33 253.93C109.05 254.16 106.75 254.3 104.41 254.34H102.75H101.8H99.8799C99.5299 254.34 99.1999 254.34 98.8799 254.34H98.1399L96.8199 254.27H96.2399L95.0099 254.18H94.9299L93.1999 254.02C92.6099 253.97 92.0399 253.9 91.4699 253.82C91.1299 253.82 90.7899 253.75 90.4699 253.69C90.1499 253.63 89.6599 253.59 89.2599 253.52L88.7099 253.44L87.7099 253.27L86.5699 253.07C85.4699 252.87 84.3699 252.64 83.2899 252.39C82.8599 252.31 82.4499 252.2 82.0299 252.1L81.3899 251.95L80.1699 251.64L79.8599 251.55L78.4399 251.15C77.3799 250.84 76.3199 250.51 75.2799 250.15L73.7199 249.61C70.9963 248.661 68.3258 247.566 65.7199 246.33L63.1499 245.06C61.2199 244.06 59.3299 242.99 57.4899 241.84L56.1099 240.98C54.7399 240.1 53.2199 239.34 51.9099 238.38L51.4799 238.07C50.6899 237.49 51.7699 238.45 51.7699 238.45L147.26 117.97H114.26L162.58 42.97H91.2999L111.99 10.97L114.25 7.46997H171.77C174.453 7.48569 177.021 8.55769 178.919 10.4538C180.817 12.3498 181.892 14.9173 181.91 17.6V17.45Z" fill="#030305"/>
<path d="M51.9798 238.43L56.9798 224.87L79.9798 161.09H44.2898L52.2298 139.75H17.0498C17.0498 139.95 17.0498 140.15 17.0498 140.36V169.22C17.0583 182.507 20.1356 195.613 26.0418 207.516C31.948 219.419 40.5236 229.796 51.0998 237.84L51.9898 238.43H51.9798Z" fill="#030305"/>
<path fill-rule="evenodd" clip-rule="evenodd" d="M230.94 218.49C225.77 223.634 218.979 226.828 211.72 227.531C204.461 228.233 197.183 226.4 191.123 222.343C185.063 218.286 180.595 212.255 178.478 205.277C176.362 198.298 176.728 190.801 179.513 184.062C182.299 177.322 187.333 171.755 193.759 168.307C200.185 164.859 207.607 163.743 214.763 165.149C221.919 166.555 228.367 170.395 233.012 176.018C237.656 181.64 240.21 188.697 240.24 195.99C240.301 200.176 239.508 204.33 237.909 208.199C236.31 212.067 233.939 215.569 230.94 218.49ZM250.26 154.27C242.006 146.009 231.486 140.382 220.033 138.104C208.579 135.826 196.707 136.997 185.92 141.471C175.132 145.945 165.916 153.519 159.436 163.235C152.957 172.95 149.506 184.37 149.522 196.048C149.537 207.726 153.018 219.137 159.523 228.835C166.028 238.534 175.265 246.084 186.064 250.529C196.863 254.974 208.738 256.114 220.185 253.806C231.633 251.497 242.138 245.843 250.37 237.56C255.904 232.155 260.28 225.681 263.232 218.531C266.184 211.381 267.65 203.705 267.54 195.97C267.56 188.222 266.044 180.547 263.078 173.389C260.111 166.231 255.755 159.733 250.26 154.27Z" fill="#030305"/>
</svg>
