<?xml version="1.0" encoding="UTF-8"?>
<!DOCTYPE svg PUBLIC "-//W3C//DTD SVG 1.1//EN" "http://www.w3.org/Graphics/SVG/1.1/DTD/svg11.dtd">
<!-- Creator: CorelDRAW 2020 (64-Bit Evaluation Version) -->
<svg xmlns="http://www.w3.org/2000/svg" xml:space="preserve" width="1.06667in" height="0.316665in" version="1.1" style="shape-rendering:geometricPrecision; text-rendering:geometricPrecision; image-rendering:optimizeQuality; fill-rule:evenodd; clip-rule:evenodd"
viewBox="0 0 1066.66 316.66"
 xmlns:xlink="http://www.w3.org/1999/xlink"
 xmlns:xodm="http://www.corel.com/coreldraw/odm/2003">
 <defs>
  <style type="text/css">
   <![CDATA[
    .fil3 {fill:none}
    .fil2 {fill:#2B2A29}
    .fil1 {fill:#FECF2B}
    .fil0 {fill:#2B2A29;fill-rule:nonzero}
   ]]>
  </style>
   <clipPath id="id0">
    <path d="M-0 0l1066.66 0 0 316.66 -1066.66 0 0 -316.66z"/>
   </clipPath>
 </defs>
 <g id="Layer_x0020_1">
  <metadata id="CorelCorpID_0Corel-Layer"/>
  <g>
  </g>
  <g style="clip-path:url(#id0)">
   <g>
    <g id="_1458400227840">
     <path class="fil0" d="M132.83 273.87l11.11 36.53 6.09 0 5.93 -17.36c1.3,-3.94 2.44,-7.7 3.35,-12.09l0.15 0c0.93,4.3 1.99,7.94 3.28,12.01l5.63 17.44 6.09 0 11.89 -36.53 -6.62 0 -5.27 18.34c-1.21,4.3 -2.2,8.15 -2.81,11.86l-0.24 0c-0.84,-3.7 -1.9,-7.56 -3.28,-11.94l-5.7 -18.26 -5.63 0 -6.02 18.64c-1.21,3.91 -2.44,7.85 -3.28,11.56l-0.22 0c-0.69,-3.79 -1.69,-7.56 -2.74,-11.64l-4.87 -18.56 -6.84 0zm56.94 0l11.11 36.53 6.09 0 5.94 -17.36c1.29,-3.94 2.44,-7.7 3.34,-12.09l0.15 0c0.93,4.3 1.98,7.94 3.28,12.01l5.63 17.44 6.08 0 11.89 -36.53 -6.63 0 -5.27 18.34c-1.21,4.3 -2.2,8.15 -2.8,11.86l-0.24 0c-0.84,-3.7 -1.9,-7.56 -3.28,-11.94l-5.7 -18.26 -5.63 0 -6.02 18.64c-1.21,3.91 -2.44,7.85 -3.28,11.56l-0.22 0c-0.69,-3.79 -1.69,-7.56 -2.74,-11.64l-4.88 -18.56 -6.84 0zm56.95 0l11.11 36.53 6.08 0 5.94 -17.36c1.3,-3.94 2.44,-7.7 3.35,-12.09l0.15 0c0.93,4.3 1.98,7.94 3.28,12.01l5.63 17.44 6.09 0 11.89 -36.53 -6.63 0 -5.26 18.34c-1.21,4.3 -2.2,8.15 -2.81,11.86l-0.24 0c-0.84,-3.7 -1.9,-7.56 -3.28,-11.94l-5.7 -18.26 -5.63 0 -6.02 18.64c-1.21,3.91 -2.44,7.85 -3.28,11.56l-0.22 0c-0.69,-3.79 -1.68,-7.56 -2.74,-11.64l-4.88 -18.56 -6.84 0zm60.14 37.37c2.8,0 4.55,-2.04 4.55,-4.75 0,-2.8 -1.81,-4.77 -4.49,-4.77 -2.65,0 -4.57,1.97 -4.57,4.77 0,2.72 1.83,4.75 4.51,4.75z"/>
     <path class="fil0" d="M318.81 310.4l11.57 0 0 -21.3c0,-1.05 0.15,-2.18 0.48,-2.87 0.76,-2.12 2.65,-4.3 5.85,-4.3 4.19,0 5.87,3.26 5.87,8l0 20.46 11.57 0 0 -21.89c0,-10.87 -5.7,-15.86 -13.31,-15.86 -6.17,0 -9.97,3.56 -11.5,5.89l-0.24 0 -0.52 -5.05 -10.06 0c0.15,3.26 0.3,7.17 0.3,11.77l0 25.15zm76.2 0c-0.37,-2.04 -0.52,-5.44 -0.52,-8.99l0 -12.84c0,-8.67 -3.97,-15.92 -16.38,-15.92 -6.78,0 -11.87,1.82 -14.46,3.26l2.13 7.4c2.42,-1.52 6.45,-2.8 10.28,-2.8 5.7,0 6.78,2.8 6.78,4.75l0 0.54c-13.18,-0.09 -21.86,4.54 -21.86,14.12 0,5.89 4.49,11.32 12.04,11.32 4.4,0 8.22,-1.59 10.66,-4.54l0.21 0 0.69 3.7 10.43 0zm-11.81 -13.44c0,0.69 -0.06,1.37 -0.22,1.97 -0.76,2.33 -3.13,4.22 -6.02,4.22 -2.59,0 -4.57,-1.43 -4.57,-4.37 0,-4.45 4.72,-5.89 10.81,-5.82l0 4zm15.56 -23.48l13.55 36.92 11.57 0 13.85 -36.92 -12.17 0 -4.81 17.14c-0.84,3.17 -1.44,5.95 -2.05,8.99l-0.24 0c-0.52,-2.95 -1.21,-5.91 -2.11,-8.99l-5.03 -17.14 -12.56 0zm53.82 36.92l0.45 -5.14 0.15 0c2.68,4.39 6.86,5.97 11.2,5.97 8.52,0 17.05,-6.66 17.05,-19.94 0.09,-11.32 -6.48,-18.64 -15.37,-18.64 -5.18,0 -9.07,2.04 -11.29,5.22l-0.15 0 0 -21.08 -11.57 0 0 42.58c0,4.15 -0.15,8.6 -0.3,11.02l9.82 0zm2.05 -21.15c0,-0.75 0.08,-1.43 0.24,-2.12 0.76,-3.31 3.65,-5.65 6.78,-5.65 5.39,0 7.98,4.54 7.98,10.27 0,6.63 -3.04,10.4 -7.98,10.4 -3.35,0 -6.02,-2.33 -6.78,-5.44 -0.15,-0.6 -0.24,-1.28 -0.24,-2.03l0 -5.44zm33.97 21.15l11.57 0 0 -21.89c0,-0.83 0.09,-1.82 0.39,-2.57 0.84,-2.04 2.74,-4 5.78,-4 4.34,0 6.02,3.32 6.02,8.15l0 20.31 11.57 0 0 -21.59c0,-11.11 -5.63,-16.16 -13.01,-16.16 -2.14,0 -4.34,0.54 -6.02,1.43 -1.83,0.99 -3.34,2.19 -4.57,3.79l-0.15 0 0 -21.08 -11.57 0 0 53.61zm76.2 0c-0.37,-2.04 -0.52,-5.44 -0.52,-8.99l0 -12.84c0,-8.67 -3.97,-15.92 -16.38,-15.92 -6.78,0 -11.87,1.82 -14.46,3.26l2.14 7.4c2.42,-1.52 6.45,-2.8 10.27,-2.8 5.7,0 6.78,2.8 6.78,4.75l0 0.54c-13.19,-0.09 -21.86,4.54 -21.86,14.12 0,5.89 4.49,11.32 12.04,11.32 4.41,0 8.22,-1.59 10.66,-4.54l0.22 0 0.69 3.7 10.42 0zm-11.8 -13.44c0,0.69 -0.07,1.37 -0.22,1.97 -0.76,2.33 -3.13,4.22 -6.02,4.22 -2.59,0 -4.58,-1.43 -4.58,-4.37 0,-4.45 4.73,-5.89 10.81,-5.82l0 4zm20.41 13.44l11.57 0 0 -18.72c0,-0.9 0.08,-1.82 0.24,-2.57 0.76,-3.55 3.65,-5.8 7.92,-5.8 1.29,0 2.29,0.15 3.13,0.3l0 -10.81c-0.84,-0.15 -1.38,-0.15 -2.44,-0.15 -3.58,0 -8.16,2.27 -10.06,7.62l-0.3 0 -0.39 -6.78 -9.97 0c0.15,3.17 0.3,6.72 0.3,12.16l0 24.76zm59.7 0c-0.37,-2.04 -0.52,-5.44 -0.52,-8.99l0 -12.84c0,-8.67 -3.97,-15.92 -16.38,-15.92 -6.78,0 -11.87,1.82 -14.46,3.26l2.14 7.4c2.41,-1.52 6.45,-2.8 10.27,-2.8 5.7,0 6.78,2.8 6.78,4.75l0 0.54c-13.18,-0.09 -21.86,4.54 -21.86,14.12 0,5.89 4.49,11.32 12.04,11.32 4.4,0 8.22,-1.59 10.66,-4.54l0.22 0 0.69 3.7 10.43 0zm-11.81 -13.44c0,0.69 -0.06,1.37 -0.22,1.97 -0.75,2.33 -3.13,4.22 -6.02,4.22 -2.59,0 -4.57,-1.43 -4.57,-4.37 0,-4.45 4.72,-5.89 10.81,-5.82l0 4zm21.41 -31.48l0 8 -4.94 0 0 8.45 4.94 0 0 15.11c0,5.2 1.08,8.75 3.19,10.93 1.83,1.89 4.96,3.17 8.7,3.17 3.26,0 6,-0.37 7.53,-0.98l-0.09 -8.67c-0.82,0.15 -1.96,0.3 -3.41,0.3 -3.52,0 -4.57,-2.04 -4.57,-6.51l0 -13.35 8.29 0 0 -8.45 -8.29 0 0 -10.57 -11.35 2.57zm26.35 44.92l11.57 0 0 -53.61 -11.57 0 0 53.61zm32.5 0l0 -36.92 -11.57 0 0 36.92 11.57 0zm-5.78 -53.01c-3.73,0 -6.15,2.5 -6.09,5.82 -0.06,3.17 2.35,5.74 6.02,5.74 3.8,0 6.24,-2.57 6.24,-5.74 -0.07,-3.31 -2.44,-5.82 -6.17,-5.82zm11.14 16.09l13.55 36.92 11.57 0 13.85 -36.92 -12.17 0 -4.81 17.14c-0.84,3.17 -1.44,5.95 -2.05,8.99l-0.24 0c-0.52,-2.95 -1.21,-5.91 -2.11,-8.99l-5.03 -17.14 -12.56 0zm76.04 22.13c0.15,-0.83 0.39,-2.57 0.39,-4.54 0,-9.14 -4.57,-18.43 -16.59,-18.43 -12.95,0 -18.82,10.34 -18.82,19.71 0,11.56 7.25,18.79 19.87,18.79 5.03,0 9.67,-0.75 13.49,-2.27l-1.53 -7.77c-3.13,0.98 -6.32,1.52 -10.27,1.52 -5.42,0 -10.12,-2.27 -10.51,-7.02l23.98 0zm-24.06 -7.85c0.33,-3.1 2.29,-7.49 7.17,-7.49 5.33,0 6.54,4.69 6.54,7.49l-13.7 0zm35.2 23.48c2.81,0 4.56,-2.04 4.56,-4.75 0,-2.8 -1.81,-4.77 -4.49,-4.77 -2.65,0 -4.57,1.97 -4.57,4.77 0,2.72 1.83,4.75 4.51,4.75zm37.98 -7.17c-1.9,0.81 -4.43,1.8 -8.22,1.8 -7.31,0 -12.8,-5.2 -12.8,-13.65 0,-7.64 4.57,-13.82 13.01,-13.82 3.67,0 6.17,0.83 7.77,1.73l1.54 -5.13c-1.83,-0.9 -5.33,-1.89 -9.3,-1.89 -12.02,0 -19.79,8.15 -19.79,19.41 0,11.17 7.23,18.64 18.35,18.64 4.96,0 8.83,-1.2 10.59,-2.12l-1.14 -4.96zm24.58 -31.03c-10.21,0 -18.28,7.17 -18.28,19.39 0,11.56 7.69,18.81 17.68,18.81 8.89,0 18.34,-5.89 18.34,-19.41 0,-11.17 -7.17,-18.79 -17.74,-18.79zm-0.15 4.99c7.92,0 11.03,7.83 11.03,14.04 0,8.22 -4.79,14.19 -11.18,14.19 -6.56,0 -11.2,-6.04 -11.2,-14.04 0,-6.95 3.43,-14.18 11.35,-14.18zm26.35 32.38l6.54 0 0 -22.04c0,-1.13 0.15,-2.27 0.54,-3.25 1.06,-3.32 4.1,-6.63 8.29,-6.63 5.11,0 7.68,4.22 7.68,10.04l0 21.89 6.56 0 0 -22.58c0,-1.2 0.22,-2.42 0.54,-3.31 1.12,-3.26 4.1,-6.04 7.9,-6.04 5.42,0 8.01,4.22 8.01,11.23l0 20.7 6.54 0 0 -21.51c0,-12.69 -7.23,-15.86 -12.11,-15.86 -3.49,0 -5.93,0.9 -8.13,2.57 -1.53,1.14 -2.98,2.72 -4.12,4.75l-0.15 0c-1.59,-4.3 -5.39,-7.32 -10.42,-7.32 -6.09,0 -9.52,3.23 -11.57,6.72l-0.24 0 -0.3 -5.89 -5.87 0c0.24,3.02 0.32,6.1 0.32,9.89l0 26.65z"/>
     <path class="fil1" d="M510.83 219.35c-11.87,0 -18.43,-1.87 -18.43,-16.25l-1.88 0c-0.31,1.56 -2.81,11.25 -3.12,12.18 -1.87,3.13 -0.63,1.56 -5.31,2.81 -11.87,3.12 -15.31,1.87 -16.25,-6.88l-1.87 0c-0.31,9.69 -3.75,8.13 -13.44,8.13 -108.74,-0.63 -220.61,0 -329.66,0l0 3.13 321.54 0c8.12,0 13.75,0.31 20.62,0.94 0,4.69 0.63,3.13 0.94,7.19l1.87 0c0.31,-4.06 0.94,-2.5 1.25,-7.19 2.19,0 13.75,-2.5 19.06,2.19 2.19,1.88 4.06,10.31 4.37,13.13l1.88 0c0,-3.75 1.56,-10 3.12,-12.18 1.56,-1.88 2.81,-1.88 5.31,-2.81 7.81,-2.5 12.18,-1.56 19.06,0.94 9.06,2.81 6.56,-0.31 10.31,12.19 0.31,1.87 0.63,2.19 1.25,3.75 0.31,0.94 0.31,1.56 0.94,2.19 0.94,2.19 0.31,0.94 0.94,2.19 1.25,-5.94 3.75,-11.87 5,-18.43 1.25,0 28.75,-9.69 33.12,1.56l4.69 10.63c0,-3.13 1.87,-10.31 3.12,-12.18 1.56,-1.88 2.81,-1.88 5.31,-2.81l10 -1.25c5.63,0 5.94,2.81 6.25,8.12l1.87 0c0.31,-4.06 0.94,-2.5 0.94,-7.19 31.56,-2.5 138.74,-0.94 170.61,-0.94 57.18,0 114.37,0 171.55,0l0 -3.13c-2.81,0 -336.53,0.94 -339.66,-0.31 -1.56,-0.63 -2.81,0.62 -3.44,-7.81l-1.87 0c-0.31,7.81 -1.88,8.13 -8.44,8.13 -20.94,0 -11.56,-11.25 -18.13,-16.25 -0.31,1.56 -2.81,11.25 -3.12,12.18 -3.44,5.63 -17.81,4.37 -24.69,2.19 -3.44,-0.94 -6.25,-0.94 -7.81,-3.13 -2.81,-3.75 -2.19,-13.44 -6.25,-16.25 -4.37,18.44 -5,17.18 -12.18,19.37 -3.44,0.94 -5.31,1.87 -9.38,1.87z"/>
     <path class="fil2" d="M697.91 97.54c10.18,-0.46 20.6,-0.01 30.65,-1.86l1.72 -0.32 1.7 -0.41 1.58 -0.41 1.5 -0.48 1.52 -0.56 1.39 -0.54 1.33 -0.61 1.19 -0.61 1.17 -0.74 1.13 -0.74 1.02 -0.78 0.94 -0.81 0.81 -0.81 0.76 -0.92 0.69 -0.93 0.58 -1.01 0.56 -1.07 0.43 -1.1 0.4 -1.2 0.27 -1.2 0.2 -1.36 0.13 -1.44 0 -1.5c-0.47,-8.78 -5.43,-17.99 -14,-20.93l-1.26 -0.49 -0.92 -0.3 -0.79 -0.25 -0.74 -0.18 -0.87 -0.15 -1.09 -0.11 -66.09 0 0 126.83 -34.73 0 -0.44 -126.83 -17.83 0 -0.49 126.83 -34.53 0 0 -63.59 -31.8 0 -1.07 0.03 0.15 3.61 0.05 2.48 0 14.48 -0.05 2.44c-1.11,26.28 -20.88,37.72 -43.43,37.24l-2.56 -0.16 -2.47 -0.32 -2.35 -0.36 -2.42 -0.48 -2.35 -0.64 -2.24 -0.7 -2.26 -0.86 -2.17 -0.95 -2.09 -1.01 -2.12 -1.2c-18.38,-11.93 -24.35,-30.13 -20.5,-51.2l0.63 -2.71 0.74 -2.71 0.91 -2.57 1 -2.48 1.12 -2.41 1.23 -2.25 1.33 -2.19 1.47 -2.12 1.61 -1.99 1.67 -1.89 1.83 -1.78 1.89 -1.67 2.04 -1.56 2.11 -1.48 2.27 -1.41 2.35 -1.22 2.41 -1.15 2.51 -1.05 2.68 -1 2.71 -0.83 2.79 -0.78 2.95 -0.67 2.99 -0.57 3.06 -0.46 3.46 -0.39c0.39,-8.77 0.51,-17.65 -0.14,-26.42l-0.38 -4.15 -0.27 -1.94 -0.36 -1.94 -0.2 -0.83 -0.52 -1.74c-2.89,-7.83 -10.87,-8.6 -13.59,0.09l-0.2 0.7 -0.15 0.63 -0.11 0.61 -0.07 0.66 -0.04 0.73 -0.04 0.78 0 1.51 0.09 0.83 0.05 0.83 0.12 0.79 0.24 1.84 0.37 1.83 0.39 1.93 1.35 6.17 -29.83 0 -1.56 -4.11 -1.01 -3.3 -0.75 -3.26 -0.48 -3.16 -0.27 -3.05 -0.06 -3.02 0.17 -2.97 0.44 -2.91 0.6 -2.73 0.82 -2.68 0.99 -2.58 1.21 -2.49 1.38 -2.37 1.58 -2.24 1.67 -2.1 1.82 -1.98 2.02 -1.85 2.1 -1.72 2.23 -1.58 2.33 -1.41 2.44 -1.27 2.53 -1.19 2.63 -0.96 2.68 -0.86 2.78 -0.64 2.79 -0.53 2.87 -0.37 2.94 -0.21 2.99 0 3 0.16c22.26,2.39 32.95,18.43 36.8,38.78 1.67,10.47 0.31,21.63 0.62,32.31l0.09 3.19 32.83 0 0 -26.14 -21.55 0 0 -34.84 391.56 0.2 0 34.64 -21.85 0 0 126.83 -35.24 0 0 -8.83 -0.05 -4.83 0 -4.74 -0.05 -4.74 0 -14.27 -0.05 -4.78 0 -34.17 -38.48 0 -3.1 0.39 -2.82 0.58 -2.43 0.69 -2.01 0.86 -1.7 0.93 -1.3 0.94 -1.02 1.05 -0.81 1.09 -0.58 1.09 -0.36 1.17 -0.21 1.31 -0.04 1.37 0.19 1.46 0.36 1.64 0.57 1.66 0.77 1.75 0.93 1.78 1.16 1.76 1.33 1.78 1.53 1.8 1.61 1.7 1.81 1.67 1.93 1.61 2.08 1.5 2.15 1.42 2.26 1.31 2.35 1.18 2.42 1.03 2.48 0.86 2.52 0.72 2.58 0.54 6 0.83 0 10.5 0.1 6.94 0.05 3.44 0.21 15.32 -10.98 -1.78 -6.47 -1.54 -6.14 -2 -5.9 -2.31 -5.55 -2.73 -5.29 -3.03 -4.94 -3.35 -4.57 -3.59 -4.28 -3.81 -3.88 -4.04 -3.52 -4.24 -3.11 -4.4 -2.75 -4.53 -2.31 -4.67 -1.83 -4.72 -1.42 -4.79 -0.95 -4.82 -0.48 -4.81 0.05 -4.78 0.54 -4.71 1.14 -4.6 1.62 -4.5 2.24 -4.32 2.83 -4.08 3.39 -3.77 3.95 -3.52 4.54 -3.2 5.16 -2.79 5.68 -2.45 6.3 -2.01 6.86 -1.64 7.61 -1.2 39.95 0 0 -13.43 -108.35 0 1.2 3.16 1.29 4.08 1.04 4.05 0.73 3.92 0.47 3.78 0.21 3.7 -0.05 3.62 -0.32 3.49 -0.59 3.38 -0.81 3.24 -1.08 3.14 -1.3 3.04 -1.58 2.9 -1.76 2.67 -1.94 2.65 -2.22 2.44 -2.38 2.33 -2.56 2.19 -2.76 2.02 -2.92 1.88 -3.07 1.77 -3.22 1.61 -3.37 1.5 -3.56 1.34 -3.63 1.23 -3.79 1.07 -3.91 0.96 -4.06 0.86 -4.17 0.71 -4.25 0.56 -0.62 0.07 0.17 1.03 0.56 1.93 0.72 1.76 0.92 1.63 1.06 1.49 1.29 1.37 1.49 1.36 1.58 1.21 1.81 1.13 1.93 1.05 2.13 0.93 2.2 0.85 2.38 0.73 2.48 0.7 2.55 0.6 2.64 0.52 2.74 0.47 2.67 0.38 2.77 0.28 2.87 0.29 2.76 0.24 5.5 0.29 5.35 0.2 5.07 0.15 4.67 0.1 7.73 0.28 0.11 7.05 0 3.17 0.05 3.12 0 2.96 0.05 3.01 0.05 3.02 0.1 3.22 0.11 7.2 -9 0.09 -5.18 -0.05 -5.09 -0.15 -5.07 -0.2 -5.07 -0.35 -5 -0.5 -4.85 -0.59 -4.84 -0.7 -4.79 -0.91 -4.66 -1.01 -4.53 -1.22 -4.43 -1.38 -4.31 -1.59 -4.12 -1.75 -4.04 -2.02 -3.8 -2.18 -3.65 -2.45 -3.47 -2.68 -3.22 -2.96 -2.98 -3.19 -2.8 -3.44 -2.5 -3.77 -2.21 -4 -1.94 -4.31 -1.62 -4.54 -1.35 -4.85 -0.02 -0.11 -9.59 0 0 -32.43 18.34 0zm-444.63 6.75c-22.01,0 -43.75,0 -65.87,0l-0.89 0.08 -0.98 0.13 -1.02 0.17 -0.96 0.21 -0.91 0.24 -0.98 0.34 -0.96 0.33 -1.84 0.84 -0.82 0.47 -0.84 0.52c-7.77,5.73 -7.82,16.47 1.33,22.13l1.31 0.6 1.39 0.46 1.37 0.31 1.4 0.15 1.41 0 1.46 -0.12 1.45 -0.24 1.37 -0.35 1.41 -0.52 1.39 -0.63 1.29 -0.68 1.27 -0.86 1.22 -0.93 1.11 -0.98 0.99 -1.04 0.89 -1.13 0.83 -1.2 0.7 -1.21 0.53 -1.22 0.44 -1.31 0.3 -1.23 0.15 -1.33 0.04 -1.23 -0.14 -1.24 -0.3 -1.32 -0.01 -0.03 31.91 0 0.18 1.32 0.21 3.52 -0.06 3.48 -0.32 3.44 -0.58 3.34 -0.75 3.25 -1.02 3.17 -1.23 3.1 -1.43 2.92 -1.59 2.85 -1.81 2.78 -1.99 2.63 -2.17 2.44 -2.28 2.33 -2.48 2.17 -2.58 2.05 -2.72 1.87 -2.87 1.7 -2.97 1.48 -3.07 1.32 -3.17 1.11 -3.29 0.96 -3.36 0.69 -3.39 0.48 -3.48 0.26 -3.49 0.05 -3.62 -0.21 -3.61 -0.48 -3.59 -0.74 -3.85 -1.06 -4.58 -2.23 -4.08 -2.41 -3.77 -2.62 -3.48 -2.85 -3.09 -2.99 -2.85 -3.11 -2.55 -3.35 -2.23 -3.45 -1.86 -3.52 -1.59 -3.66 -1.27 -3.7 -1.02 -3.74 -0.64 -3.85 -0.37 -3.8 -0.11 -3.8 0.27 -3.85 0.53 -3.75 0.8 -3.72 1.13 -3.7 1.44 -3.57 1.7 -3.44 1.97 -3.36 2.29 -3.2 2.55 -3.07 2.81 -2.87 3.09 -2.72 3.4 -2.44 3.63 -2.26 3.91 -2.01 4.15 -1.73c5.52,-1.84 9.66,-2.69 15.52,-2.73l70.26 -0.43 0 -13.06 -118.75 0 0 -34.65 310.13 0 0 34.65 -11.5 0 -0.49 126.83 -34.58 0 0 -18.96c-30,16.87 -77.58,9.45 -91.07,-25.7 -4.85,-12.65 -4.64,-26.06 0.71,-39.84l1.52 -3.26 1.7 -3.13 1.88 -2.89 2.01 -2.65 2.15 -2.52 2.31 -2.26 2.43 -2.11 2.5 -1.92 2.69 -1.77 2.75 -1.54 2.83 -1.41 2.95 -1.26 3.02 -1.09 3.06 -0.99 3.16 -0.83 3.17 -0.71 3.22 -0.61 3.31 -0.51 3.36 -0.41 3.36 -0.3 3.39 -0.25 3.39 -0.15 3.44 -0.15 3.5 -0.05 3.49 0 3.49 0.05 5.92 0.2 0 36.77 -5.53 -1.13 -2.24 -0.33 -2.21 -0.22 -2.2 -0.09 -2.33 -0.05 -2.2 0 -2.16 0.14 -2.19 0.23 -2.18 0.28 -2.04 0.35 -1.99 0.5 -2.02 0.55 -1.87 0.63c-18.81,7.7 -15.18,32.24 8.56,33.46 13.68,0.7 26.91,-3.31 32.85,-9.93l0.45 -70.94 -110.15 0 -0.49 126.83 -34.54 0 0 -76.25zm252.8 12.82l-1.09 0.08c-5.3,0.1 -8.7,0.78 -13.22,3.72l-1.11 0.97 -0.9 1.04 -0.73 1.1 -0.53 1.02 -0.33 1.09 -0.21 1.13c-1.22,4.98 0.3,9.85 4.42,12.28 3.6,2.12 7.95,3.04 12.43,2.05l1.1 -0.74 0 -1.9 0.05 -4.72 0 -3.56 0.05 -3.54 0.05 -3.53 0.05 -3.51 0 -2.99z"/>
     <path class="fil0" d="M132.83 273.87l11.11 36.53 6.09 0 5.93 -17.36c1.3,-3.94 2.44,-7.7 3.35,-12.09l0.15 0c0.93,4.3 1.99,7.94 3.28,12.01l5.63 17.44 6.09 0 11.89 -36.53 -6.62 0 -5.27 18.34c-1.21,4.3 -2.2,8.15 -2.81,11.86l-0.24 0c-0.84,-3.7 -1.9,-7.56 -3.28,-11.94l-5.7 -18.26 -5.63 0 -6.02 18.64c-1.21,3.91 -2.44,7.85 -3.28,11.56l-0.22 0c-0.69,-3.79 -1.69,-7.56 -2.74,-11.64l-4.87 -18.56 -6.84 0zm56.94 0l11.11 36.53 6.09 0 5.94 -17.36c1.29,-3.94 2.44,-7.7 3.34,-12.09l0.15 0c0.93,4.3 1.98,7.94 3.28,12.01l5.63 17.44 6.08 0 11.89 -36.53 -6.63 0 -5.27 18.34c-1.21,4.3 -2.2,8.15 -2.8,11.86l-0.24 0c-0.84,-3.7 -1.9,-7.56 -3.28,-11.94l-5.7 -18.26 -5.63 0 -6.02 18.64c-1.21,3.91 -2.44,7.85 -3.28,11.56l-0.22 0c-0.69,-3.79 -1.69,-7.56 -2.74,-11.64l-4.88 -18.56 -6.84 0zm56.95 0l11.11 36.53 6.08 0 5.94 -17.36c1.3,-3.94 2.44,-7.7 3.35,-12.09l0.15 0c0.93,4.3 1.98,7.94 3.28,12.01l5.63 17.44 6.09 0 11.89 -36.53 -6.63 0 -5.26 18.34c-1.21,4.3 -2.2,8.15 -2.81,11.86l-0.24 0c-0.84,-3.7 -1.9,-7.56 -3.28,-11.94l-5.7 -18.26 -5.63 0 -6.02 18.64c-1.21,3.91 -2.44,7.85 -3.28,11.56l-0.22 0c-0.69,-3.79 -1.68,-7.56 -2.74,-11.64l-4.88 -18.56 -6.84 0zm60.14 37.37c2.8,0 4.55,-2.04 4.55,-4.75 0,-2.8 -1.81,-4.77 -4.49,-4.77 -2.65,0 -4.57,1.97 -4.57,4.77 0,2.72 1.83,4.75 4.51,4.75z"/>
     <path class="fil0" d="M318.81 310.4l11.57 0 0 -21.3c0,-1.05 0.15,-2.18 0.48,-2.87 0.76,-2.12 2.65,-4.3 5.85,-4.3 4.19,0 5.87,3.26 5.87,8l0 20.46 11.57 0 0 -21.89c0,-10.87 -5.7,-15.86 -13.31,-15.86 -6.17,0 -9.97,3.56 -11.5,5.89l-0.24 0 -0.52 -5.05 -10.06 0c0.15,3.26 0.3,7.17 0.3,11.77l0 25.15zm76.2 0c-0.37,-2.04 -0.52,-5.44 -0.52,-8.99l0 -12.84c0,-8.67 -3.97,-15.92 -16.38,-15.92 -6.78,0 -11.87,1.82 -14.46,3.26l2.13 7.4c2.42,-1.52 6.45,-2.8 10.28,-2.8 5.7,0 6.78,2.8 6.78,4.75l0 0.54c-13.18,-0.09 -21.86,4.54 -21.86,14.12 0,5.89 4.49,11.32 12.04,11.32 4.4,0 8.22,-1.59 10.66,-4.54l0.21 0 0.69 3.7 10.43 0zm-11.81 -13.44c0,0.69 -0.06,1.37 -0.22,1.97 -0.76,2.33 -3.13,4.22 -6.02,4.22 -2.59,0 -4.57,-1.43 -4.57,-4.37 0,-4.45 4.72,-5.89 10.81,-5.82l0 4zm15.56 -23.48l13.55 36.92 11.57 0 13.85 -36.92 -12.17 0 -4.81 17.14c-0.84,3.17 -1.44,5.95 -2.05,8.99l-0.24 0c-0.52,-2.95 -1.21,-5.91 -2.11,-8.99l-5.03 -17.14 -12.56 0zm53.82 36.92l0.45 -5.14 0.15 0c2.68,4.39 6.86,5.97 11.2,5.97 8.52,0 17.05,-6.66 17.05,-19.94 0.09,-11.32 -6.48,-18.64 -15.37,-18.64 -5.18,0 -9.07,2.04 -11.29,5.22l-0.15 0 0 -21.08 -11.57 0 0 42.58c0,4.15 -0.15,8.6 -0.3,11.02l9.82 0zm2.05 -21.15c0,-0.75 0.08,-1.43 0.24,-2.12 0.76,-3.31 3.65,-5.65 6.78,-5.65 5.39,0 7.98,4.54 7.98,10.27 0,6.63 -3.04,10.4 -7.98,10.4 -3.35,0 -6.02,-2.33 -6.78,-5.44 -0.15,-0.6 -0.24,-1.28 -0.24,-2.03l0 -5.44zm33.97 21.15l11.57 0 0 -21.89c0,-0.83 0.09,-1.82 0.39,-2.57 0.84,-2.04 2.74,-4 5.78,-4 4.34,0 6.02,3.32 6.02,8.15l0 20.31 11.57 0 0 -21.59c0,-11.11 -5.63,-16.16 -13.01,-16.16 -2.14,0 -4.34,0.54 -6.02,1.43 -1.83,0.99 -3.34,2.19 -4.57,3.79l-0.15 0 0 -21.08 -11.57 0 0 53.61zm76.2 0c-0.37,-2.04 -0.52,-5.44 -0.52,-8.99l0 -12.84c0,-8.67 -3.97,-15.92 -16.38,-15.92 -6.78,0 -11.87,1.82 -14.46,3.26l2.14 7.4c2.42,-1.52 6.45,-2.8 10.27,-2.8 5.7,0 6.78,2.8 6.78,4.75l0 0.54c-13.19,-0.09 -21.86,4.54 -21.86,14.12 0,5.89 4.49,11.32 12.04,11.32 4.41,0 8.22,-1.59 10.66,-4.54l0.22 0 0.69 3.7 10.42 0zm-11.8 -13.44c0,0.69 -0.07,1.37 -0.22,1.97 -0.76,2.33 -3.13,4.22 -6.02,4.22 -2.59,0 -4.58,-1.43 -4.58,-4.37 0,-4.45 4.73,-5.89 10.81,-5.82l0 4zm20.41 13.44l11.57 0 0 -18.72c0,-0.9 0.08,-1.82 0.24,-2.57 0.76,-3.55 3.65,-5.8 7.92,-5.8 1.29,0 2.29,0.15 3.13,0.3l0 -10.81c-0.84,-0.15 -1.38,-0.15 -2.44,-0.15 -3.58,0 -8.16,2.27 -10.06,7.62l-0.3 0 -0.39 -6.78 -9.97 0c0.15,3.17 0.3,6.72 0.3,12.16l0 24.76zm59.7 0c-0.37,-2.04 -0.52,-5.44 -0.52,-8.99l0 -12.84c0,-8.67 -3.97,-15.92 -16.38,-15.92 -6.78,0 -11.87,1.82 -14.46,3.26l2.14 7.4c2.41,-1.52 6.45,-2.8 10.27,-2.8 5.7,0 6.78,2.8 6.78,4.75l0 0.54c-13.18,-0.09 -21.86,4.54 -21.86,14.12 0,5.89 4.49,11.32 12.04,11.32 4.4,0 8.22,-1.59 10.66,-4.54l0.22 0 0.69 3.7 10.43 0zm-11.81 -13.44c0,0.69 -0.06,1.37 -0.22,1.97 -0.75,2.33 -3.13,4.22 -6.02,4.22 -2.59,0 -4.57,-1.43 -4.57,-4.37 0,-4.45 4.72,-5.89 10.81,-5.82l0 4zm21.41 -31.48l0 8 -4.94 0 0 8.45 4.94 0 0 15.11c0,5.2 1.08,8.75 3.19,10.93 1.83,1.89 4.96,3.17 8.7,3.17 3.26,0 6,-0.37 7.53,-0.98l-0.09 -8.67c-0.82,0.15 -1.96,0.3 -3.41,0.3 -3.52,0 -4.57,-2.04 -4.57,-6.51l0 -13.35 8.29 0 0 -8.45 -8.29 0 0 -10.57 -11.35 2.57zm26.35 44.92l11.57 0 0 -53.61 -11.57 0 0 53.61zm32.5 0l0 -36.92 -11.57 0 0 36.92 11.57 0zm-5.78 -53.01c-3.73,0 -6.15,2.5 -6.09,5.82 -0.06,3.17 2.35,5.74 6.02,5.74 3.8,0 6.24,-2.57 6.24,-5.74 -0.07,-3.31 -2.44,-5.82 -6.17,-5.82zm11.14 16.09l13.55 36.92 11.57 0 13.85 -36.92 -12.17 0 -4.81 17.14c-0.84,3.17 -1.44,5.95 -2.05,8.99l-0.24 0c-0.52,-2.95 -1.21,-5.91 -2.11,-8.99l-5.03 -17.14 -12.56 0zm76.04 22.13c0.15,-0.83 0.39,-2.57 0.39,-4.54 0,-9.14 -4.57,-18.43 -16.59,-18.43 -12.95,0 -18.82,10.34 -18.82,19.71 0,11.56 7.25,18.79 19.87,18.79 5.03,0 9.67,-0.75 13.49,-2.27l-1.53 -7.77c-3.13,0.98 -6.32,1.52 -10.27,1.52 -5.42,0 -10.12,-2.27 -10.51,-7.02l23.98 0zm-24.06 -7.85c0.33,-3.1 2.29,-7.49 7.17,-7.49 5.33,0 6.54,4.69 6.54,7.49l-13.7 0zm35.2 23.48c2.81,0 4.56,-2.04 4.56,-4.75 0,-2.8 -1.81,-4.77 -4.49,-4.77 -2.65,0 -4.57,1.97 -4.57,4.77 0,2.72 1.83,4.75 4.51,4.75zm37.98 -7.17c-1.9,0.81 -4.43,1.8 -8.22,1.8 -7.31,0 -12.8,-5.2 -12.8,-13.65 0,-7.64 4.57,-13.82 13.01,-13.82 3.67,0 6.17,0.83 7.77,1.73l1.54 -5.13c-1.83,-0.9 -5.33,-1.89 -9.3,-1.89 -12.02,0 -19.79,8.15 -19.79,19.41 0,11.17 7.23,18.64 18.35,18.64 4.96,0 8.83,-1.2 10.59,-2.12l-1.14 -4.96zm24.58 -31.03c-10.21,0 -18.28,7.17 -18.28,19.39 0,11.56 7.69,18.81 17.68,18.81 8.89,0 18.34,-5.89 18.34,-19.41 0,-11.17 -7.17,-18.79 -17.74,-18.79zm-0.15 4.99c7.92,0 11.03,7.83 11.03,14.04 0,8.22 -4.79,14.19 -11.18,14.19 -6.56,0 -11.2,-6.04 -11.2,-14.04 0,-6.95 3.43,-14.18 11.35,-14.18zm26.35 32.38l6.54 0 0 -22.04c0,-1.13 0.15,-2.27 0.54,-3.25 1.06,-3.32 4.1,-6.63 8.29,-6.63 5.11,0 7.68,4.22 7.68,10.04l0 21.89 6.56 0 0 -22.58c0,-1.2 0.22,-2.42 0.54,-3.31 1.12,-3.26 4.1,-6.04 7.9,-6.04 5.42,0 8.01,4.22 8.01,11.23l0 20.7 6.54 0 0 -21.51c0,-12.69 -7.23,-15.86 -12.11,-15.86 -3.49,0 -5.93,0.9 -8.13,2.57 -1.53,1.14 -2.98,2.72 -4.12,4.75l-0.15 0c-1.59,-4.3 -5.39,-7.32 -10.42,-7.32 -6.09,0 -9.52,3.23 -11.57,6.72l-0.24 0 -0.3 -5.89 -5.87 0c0.24,3.02 0.32,6.1 0.32,9.89l0 26.65z"/>
     <path class="fil1" d="M510.83 219.35c-11.87,0 -18.43,-1.87 -18.43,-16.25l-1.88 0c-0.31,1.56 -2.81,11.25 -3.12,12.18 -1.87,3.13 -0.63,1.56 -5.31,2.81 -11.87,3.12 -15.31,1.87 -16.25,-6.88l-1.87 0c-0.31,9.69 -3.75,8.13 -13.44,8.13 -108.74,-0.63 -220.61,0 -329.66,0l0 3.13 321.54 0c8.12,0 13.75,0.31 20.62,0.94 0,4.69 0.63,3.13 0.94,7.19l1.87 0c0.31,-4.06 0.94,-2.5 1.25,-7.19 2.19,0 13.75,-2.5 19.06,2.19 2.19,1.88 4.06,10.31 4.37,13.13l1.88 0c0,-3.75 1.56,-10 3.12,-12.18 1.56,-1.88 2.81,-1.88 5.31,-2.81 7.81,-2.5 12.18,-1.56 19.06,0.94 9.06,2.81 6.56,-0.31 10.31,12.19 0.31,1.87 0.63,2.19 1.25,3.75 0.31,0.94 0.31,1.56 0.94,2.19 0.94,2.19 0.31,0.94 0.94,2.19 1.25,-5.94 3.75,-11.87 5,-18.43 1.25,0 28.75,-9.69 33.12,1.56l4.69 10.63c0,-3.13 1.87,-10.31 3.12,-12.18 1.56,-1.88 2.81,-1.88 5.31,-2.81l10 -1.25c5.63,0 5.94,2.81 6.25,8.12l1.87 0c0.31,-4.06 0.94,-2.5 0.94,-7.19 31.56,-2.5 138.74,-0.94 170.61,-0.94 57.18,0 114.37,0 171.55,0l0 -3.13c-2.81,0 -336.53,0.94 -339.66,-0.31 -1.56,-0.63 -2.81,0.62 -3.44,-7.81l-1.87 0c-0.31,7.81 -1.88,8.13 -8.44,8.13 -20.94,0 -11.56,-11.25 -18.13,-16.25 -0.31,1.56 -2.81,11.25 -3.12,12.18 -3.44,5.63 -17.81,4.37 -24.69,2.19 -3.44,-0.94 -6.25,-0.94 -7.81,-3.13 -2.81,-3.75 -2.19,-13.44 -6.25,-16.25 -4.37,18.44 -5,17.18 -12.18,19.37 -3.44,0.94 -5.31,1.87 -9.38,1.87z"/>
     <path class="fil2" d="M697.91 97.54c10.18,-0.46 20.6,-0.01 30.65,-1.86l1.72 -0.32 1.7 -0.41 1.58 -0.41 1.5 -0.48 1.52 -0.56 1.39 -0.54 1.33 -0.61 1.19 -0.61 1.17 -0.74 1.13 -0.74 1.02 -0.78 0.94 -0.81 0.81 -0.81 0.76 -0.92 0.69 -0.93 0.58 -1.01 0.56 -1.07 0.43 -1.1 0.4 -1.2 0.27 -1.2 0.2 -1.36 0.13 -1.44 0 -1.5c-0.47,-8.78 -5.43,-17.99 -14,-20.93l-1.26 -0.49 -0.92 -0.3 -0.79 -0.25 -0.74 -0.18 -0.87 -0.15 -1.09 -0.11 -66.09 0 0 126.83 -34.73 0 -0.44 -126.83 -17.83 0 -0.49 126.83 -34.53 0 0 -63.59 -31.8 0 -1.07 0.03 0.15 3.61 0.05 2.48 0 14.48 -0.05 2.44c-1.11,26.28 -20.88,37.72 -43.43,37.24l-2.56 -0.16 -2.47 -0.32 -2.35 -0.36 -2.42 -0.48 -2.35 -0.64 -2.24 -0.7 -2.26 -0.86 -2.17 -0.95 -2.09 -1.01 -2.12 -1.2c-18.38,-11.93 -24.35,-30.13 -20.5,-51.2l0.63 -2.71 0.74 -2.71 0.91 -2.57 1 -2.48 1.12 -2.41 1.23 -2.25 1.33 -2.19 1.47 -2.12 1.61 -1.99 1.67 -1.89 1.83 -1.78 1.89 -1.67 2.04 -1.56 2.11 -1.48 2.27 -1.41 2.35 -1.22 2.41 -1.15 2.51 -1.05 2.68 -1 2.71 -0.83 2.79 -0.78 2.95 -0.67 2.99 -0.57 3.06 -0.46 3.46 -0.39c0.39,-8.77 0.51,-17.65 -0.14,-26.42l-0.38 -4.15 -0.27 -1.94 -0.36 -1.94 -0.2 -0.83 -0.52 -1.74c-2.89,-7.83 -10.87,-8.6 -13.59,0.09l-0.2 0.7 -0.15 0.63 -0.11 0.61 -0.07 0.66 -0.04 0.73 -0.04 0.78 0 1.51 0.09 0.83 0.05 0.83 0.12 0.79 0.24 1.84 0.37 1.83 0.39 1.93 1.35 6.17 -29.83 0 -1.56 -4.11 -1.01 -3.3 -0.75 -3.26 -0.48 -3.16 -0.27 -3.05 -0.06 -3.02 0.17 -2.97 0.44 -2.91 0.6 -2.73 0.82 -2.68 0.99 -2.58 1.21 -2.49 1.38 -2.37 1.58 -2.24 1.67 -2.1 1.82 -1.98 2.02 -1.85 2.1 -1.72 2.23 -1.58 2.33 -1.41 2.44 -1.27 2.53 -1.19 2.63 -0.96 2.68 -0.86 2.78 -0.64 2.79 -0.53 2.87 -0.37 2.94 -0.21 2.99 0 3 0.16c22.26,2.39 32.95,18.43 36.8,38.78 1.67,10.47 0.31,21.63 0.62,32.31l0.09 3.19 32.83 0 0 -26.14 -21.55 0 0 -34.84 391.56 0.2 0 34.64 -21.85 0 0 126.83 -35.24 0 0 -8.83 -0.05 -4.83 0 -4.74 -0.05 -4.74 0 -14.27 -0.05 -4.78 0 -34.17 -38.48 0 -3.1 0.39 -2.82 0.58 -2.43 0.69 -2.01 0.86 -1.7 0.93 -1.3 0.94 -1.02 1.05 -0.81 1.09 -0.58 1.09 -0.36 1.17 -0.21 1.31 -0.04 1.37 0.19 1.46 0.36 1.64 0.57 1.66 0.77 1.75 0.93 1.78 1.16 1.76 1.33 1.78 1.53 1.8 1.61 1.7 1.81 1.67 1.93 1.61 2.08 1.5 2.15 1.42 2.26 1.31 2.35 1.18 2.42 1.03 2.48 0.86 2.52 0.72 2.58 0.54 6 0.83 0 10.5 0.1 6.94 0.05 3.44 0.21 15.32 -10.98 -1.78 -6.47 -1.54 -6.14 -2 -5.9 -2.31 -5.55 -2.73 -5.29 -3.03 -4.94 -3.35 -4.57 -3.59 -4.28 -3.81 -3.88 -4.04 -3.52 -4.24 -3.11 -4.4 -2.75 -4.53 -2.31 -4.67 -1.83 -4.72 -1.42 -4.79 -0.95 -4.82 -0.48 -4.81 0.05 -4.78 0.54 -4.71 1.14 -4.6 1.62 -4.5 2.24 -4.32 2.83 -4.08 3.39 -3.77 3.95 -3.52 4.54 -3.2 5.16 -2.79 5.68 -2.45 6.3 -2.01 6.86 -1.64 7.61 -1.2 39.95 0 0 -13.43 -108.35 0 1.2 3.16 1.29 4.08 1.04 4.05 0.73 3.92 0.47 3.78 0.21 3.7 -0.05 3.62 -0.32 3.49 -0.59 3.38 -0.81 3.24 -1.08 3.14 -1.3 3.04 -1.58 2.9 -1.76 2.67 -1.94 2.65 -2.22 2.44 -2.38 2.33 -2.56 2.19 -2.76 2.02 -2.92 1.88 -3.07 1.77 -3.22 1.61 -3.37 1.5 -3.56 1.34 -3.63 1.23 -3.79 1.07 -3.91 0.96 -4.06 0.86 -4.17 0.71 -4.25 0.56 -0.62 0.07 0.17 1.03 0.56 1.93 0.72 1.76 0.92 1.63 1.06 1.49 1.29 1.37 1.49 1.36 1.58 1.21 1.81 1.13 1.93 1.05 2.13 0.93 2.2 0.85 2.38 0.73 2.48 0.7 2.55 0.6 2.64 0.52 2.74 0.47 2.67 0.38 2.77 0.28 2.87 0.29 2.76 0.24 5.5 0.29 5.35 0.2 5.07 0.15 4.67 0.1 7.73 0.28 0.11 7.05 0 3.17 0.05 3.12 0 2.96 0.05 3.01 0.05 3.02 0.1 3.22 0.11 7.2 -9 0.09 -5.18 -0.05 -5.09 -0.15 -5.07 -0.2 -5.07 -0.35 -5 -0.5 -4.85 -0.59 -4.84 -0.7 -4.79 -0.91 -4.66 -1.01 -4.53 -1.22 -4.43 -1.38 -4.31 -1.59 -4.12 -1.75 -4.04 -2.02 -3.8 -2.18 -3.65 -2.45 -3.47 -2.68 -3.22 -2.96 -2.98 -3.19 -2.8 -3.44 -2.5 -3.77 -2.21 -4 -1.94 -4.31 -1.62 -4.54 -1.35 -4.85 -0.02 -0.11 -9.59 0 0 -32.43 18.34 0zm-444.63 6.75c-22.01,0 -43.75,0 -65.87,0l-0.89 0.08 -0.98 0.13 -1.02 0.17 -0.96 0.21 -0.91 0.24 -0.98 0.34 -0.96 0.33 -1.84 0.84 -0.82 0.47 -0.84 0.52c-7.77,5.73 -7.82,16.47 1.33,22.13l1.31 0.6 1.39 0.46 1.37 0.31 1.4 0.15 1.41 0 1.46 -0.12 1.45 -0.24 1.37 -0.35 1.41 -0.52 1.39 -0.63 1.29 -0.68 1.27 -0.86 1.22 -0.93 1.11 -0.98 0.99 -1.04 0.89 -1.13 0.83 -1.2 0.7 -1.21 0.53 -1.22 0.44 -1.31 0.3 -1.23 0.15 -1.33 0.04 -1.23 -0.14 -1.24 -0.3 -1.32 -0.01 -0.03 31.91 0 0.18 1.32 0.21 3.52 -0.06 3.48 -0.32 3.44 -0.58 3.34 -0.75 3.25 -1.02 3.17 -1.23 3.1 -1.43 2.92 -1.59 2.85 -1.81 2.78 -1.99 2.63 -2.17 2.44 -2.28 2.33 -2.48 2.17 -2.58 2.05 -2.72 1.87 -2.87 1.7 -2.97 1.48 -3.07 1.32 -3.17 1.11 -3.29 0.96 -3.36 0.69 -3.39 0.48 -3.48 0.26 -3.49 0.05 -3.62 -0.21 -3.61 -0.48 -3.59 -0.74 -3.85 -1.06 -4.58 -2.23 -4.08 -2.41 -3.77 -2.62 -3.48 -2.85 -3.09 -2.99 -2.85 -3.11 -2.55 -3.35 -2.23 -3.45 -1.86 -3.52 -1.59 -3.66 -1.27 -3.7 -1.02 -3.74 -0.64 -3.85 -0.37 -3.8 -0.11 -3.8 0.27 -3.85 0.53 -3.75 0.8 -3.72 1.13 -3.7 1.44 -3.57 1.7 -3.44 1.97 -3.36 2.29 -3.2 2.55 -3.07 2.81 -2.87 3.09 -2.72 3.4 -2.44 3.63 -2.26 3.91 -2.01 4.15 -1.73c5.52,-1.84 9.66,-2.69 15.52,-2.73l70.26 -0.43 0 -13.06 -118.75 0 0 -34.65 310.13 0 0 34.65 -11.5 0 -0.49 126.83 -34.58 0 0 -18.96c-30,16.87 -77.58,9.45 -91.07,-25.7 -4.85,-12.65 -4.64,-26.06 0.71,-39.84l1.52 -3.26 1.7 -3.13 1.88 -2.89 2.01 -2.65 2.15 -2.52 2.31 -2.26 2.43 -2.11 2.5 -1.92 2.69 -1.77 2.75 -1.54 2.83 -1.41 2.95 -1.26 3.02 -1.09 3.06 -0.99 3.16 -0.83 3.17 -0.71 3.22 -0.61 3.31 -0.51 3.36 -0.41 3.36 -0.3 3.39 -0.25 3.39 -0.15 3.44 -0.15 3.5 -0.05 3.49 0 3.49 0.05 5.92 0.2 0 36.77 -5.53 -1.13 -2.24 -0.33 -2.21 -0.22 -2.2 -0.09 -2.33 -0.05 -2.2 0 -2.16 0.14 -2.19 0.23 -2.18 0.28 -2.04 0.35 -1.99 0.5 -2.02 0.55 -1.87 0.63c-18.81,7.7 -15.18,32.24 8.56,33.46 13.68,0.7 26.91,-3.31 32.85,-9.93l0.45 -70.94 -110.15 0 -0.49 126.83 -34.54 0 0 -76.25zm252.8 12.82l-1.09 0.08c-5.3,0.1 -8.7,0.78 -13.22,3.72l-1.11 0.97 -0.9 1.04 -0.73 1.1 -0.53 1.02 -0.33 1.09 -0.21 1.13c-1.22,4.98 0.3,9.85 4.42,12.28 3.6,2.12 7.95,3.04 12.43,2.05l1.1 -0.74 0 -1.9 0.05 -4.72 0 -3.56 0.05 -3.54 0.05 -3.53 0.05 -3.51 0 -2.99z"/>
    </g>
   </g>
  </g>
  <polygon class="fil3" points="-0,0 1066.66,0 1066.66,316.66 -0,316.66 "/>
 </g>
</svg>
